<mxfile host="app.diagrams.net" modified="2023-08-22T10:36:17.695Z" agent="Mozilla/5.0 (Windows NT 10.0; Win64; x64) AppleWebKit/537.36 (KHTML, like Gecko) Chrome/115.0.0.0 Safari/537.36" etag="jf8sgCnGv2CvJFIkahNP" version="21.6.8" type="github">
  <diagram name="Page-1" id="uSrswJnvK80ilH3P5mjm">
    <mxGraphModel dx="663" dy="800" grid="1" gridSize="10" guides="1" tooltips="1" connect="1" arrows="1" fold="1" page="1" pageScale="1" pageWidth="850" pageHeight="1100" math="0" shadow="0">
      <root>
        <mxCell id="0" />
        <mxCell id="1" parent="0" />
        <mxCell id="XbT-4NyTX25RX7wR1Qhp-1" value="" style="rounded=1;arcSize=10;dashed=0;fillColor=none;gradientColor=none;strokeWidth=2;" vertex="1" parent="1">
          <mxGeometry x="210" y="320" width="680" height="420" as="geometry" />
        </mxCell>
        <mxCell id="XbT-4NyTX25RX7wR1Qhp-2" value="" style="dashed=0;html=1;shape=mxgraph.aws3.cloud;fillColor=#F58536;gradientColor=none;dashed=0;" vertex="1" parent="1">
          <mxGeometry x="230" y="300" width="52" height="36" as="geometry" />
        </mxCell>
        <mxCell id="XbT-4NyTX25RX7wR1Qhp-4" value="users" style="sketch=0;outlineConnect=0;gradientColor=none;fontColor=#545B64;strokeColor=none;fillColor=#879196;dashed=0;verticalLabelPosition=bottom;verticalAlign=top;align=center;html=1;fontSize=12;fontStyle=0;aspect=fixed;shape=mxgraph.aws4.illustration_users;pointerEvents=1" vertex="1" parent="1">
          <mxGeometry x="520" y="123" width="60" height="60" as="geometry" />
        </mxCell>
        <mxCell id="XbT-4NyTX25RX7wR1Qhp-5" value="devices" style="sketch=0;outlineConnect=0;gradientColor=none;fontColor=#545B64;strokeColor=none;fillColor=#879196;dashed=0;verticalLabelPosition=bottom;verticalAlign=top;align=center;html=1;fontSize=12;fontStyle=0;aspect=fixed;shape=mxgraph.aws4.illustration_devices;pointerEvents=1" vertex="1" parent="1">
          <mxGeometry x="508.9" y="230" width="82.19" height="60" as="geometry" />
        </mxCell>
        <mxCell id="XbT-4NyTX25RX7wR1Qhp-6" value="Region" style="sketch=0;outlineConnect=0;html=1;whiteSpace=wrap;fontSize=12;fontStyle=0;shape=mxgraph.aws4.group;grIcon=mxgraph.aws4.group_region;verticalAlign=top;align=left;spacingLeft=30;dashed=1;" vertex="1" parent="1">
          <mxGeometry x="230" y="350" width="640" height="370" as="geometry" />
        </mxCell>
        <mxCell id="XbT-4NyTX25RX7wR1Qhp-7" value="Amazon GuardDuty" style="sketch=0;outlineConnect=0;fontColor=#232F3E;gradientColor=none;strokeColor=#ffffff;fillColor=#232F3E;dashed=0;verticalLabelPosition=middle;verticalAlign=bottom;align=center;html=1;whiteSpace=wrap;fontSize=10;fontStyle=1;spacing=3;shape=mxgraph.aws4.productIcon;prIcon=mxgraph.aws4.guardduty;" vertex="1" parent="1">
          <mxGeometry x="500" y="360" width="80" height="110" as="geometry" />
        </mxCell>
        <mxCell id="XbT-4NyTX25RX7wR1Qhp-8" value="AWS Firewall Manager" style="sketch=0;outlineConnect=0;fontColor=#232F3E;gradientColor=none;strokeColor=#ffffff;fillColor=#232F3E;dashed=0;verticalLabelPosition=middle;verticalAlign=bottom;align=center;html=1;whiteSpace=wrap;fontSize=10;fontStyle=1;spacing=3;shape=mxgraph.aws4.productIcon;prIcon=mxgraph.aws4.firewall_manager;" vertex="1" parent="1">
          <mxGeometry x="240" y="20" width="80" height="110" as="geometry" />
        </mxCell>
        <mxCell id="XbT-4NyTX25RX7wR1Qhp-9" value="AWS Key Management Service" style="sketch=0;outlineConnect=0;fontColor=#232F3E;gradientColor=none;strokeColor=#ffffff;fillColor=#232F3E;dashed=0;verticalLabelPosition=middle;verticalAlign=bottom;align=center;html=1;whiteSpace=wrap;fontSize=10;fontStyle=1;spacing=3;shape=mxgraph.aws4.productIcon;prIcon=mxgraph.aws4.key_management_service;" vertex="1" parent="1">
          <mxGeometry x="591.09" y="360" width="80" height="120" as="geometry" />
        </mxCell>
        <mxCell id="XbT-4NyTX25RX7wR1Qhp-10" value="AWS Secrets Manager" style="sketch=0;outlineConnect=0;fontColor=#232F3E;gradientColor=none;strokeColor=#ffffff;fillColor=#232F3E;dashed=0;verticalLabelPosition=middle;verticalAlign=bottom;align=center;html=1;whiteSpace=wrap;fontSize=10;fontStyle=1;spacing=3;shape=mxgraph.aws4.productIcon;prIcon=mxgraph.aws4.secrets_manager;" vertex="1" parent="1">
          <mxGeometry x="680" y="360" width="80" height="110" as="geometry" />
        </mxCell>
        <mxCell id="XbT-4NyTX25RX7wR1Qhp-11" value="AWS Shield" style="sketch=0;outlineConnect=0;fontColor=#232F3E;gradientColor=none;strokeColor=#ffffff;fillColor=#232F3E;dashed=0;verticalLabelPosition=middle;verticalAlign=bottom;align=center;html=1;whiteSpace=wrap;fontSize=10;fontStyle=1;spacing=3;shape=mxgraph.aws4.productIcon;prIcon=mxgraph.aws4.shield;" vertex="1" parent="1">
          <mxGeometry x="410" y="360" width="80" height="100" as="geometry" />
        </mxCell>
        <mxCell id="XbT-4NyTX25RX7wR1Qhp-12" value="AWS WAF" style="sketch=0;outlineConnect=0;fontColor=#232F3E;gradientColor=none;strokeColor=#ffffff;fillColor=#232F3E;dashed=0;verticalLabelPosition=middle;verticalAlign=bottom;align=center;html=1;whiteSpace=wrap;fontSize=10;fontStyle=1;spacing=3;shape=mxgraph.aws4.productIcon;prIcon=mxgraph.aws4.waf;" vertex="1" parent="1">
          <mxGeometry x="340" y="20" width="80" height="100" as="geometry" />
        </mxCell>
        <mxCell id="XbT-4NyTX25RX7wR1Qhp-13" value="Amazon Cloudfront" style="sketch=0;outlineConnect=0;fontColor=#232F3E;gradientColor=none;strokeColor=#ffffff;fillColor=#232F3E;dashed=0;verticalLabelPosition=middle;verticalAlign=bottom;align=center;html=1;whiteSpace=wrap;fontSize=10;fontStyle=1;spacing=3;shape=mxgraph.aws4.productIcon;prIcon=mxgraph.aws4.cloudfront;" vertex="1" parent="1">
          <mxGeometry x="320" y="360" width="80" height="110" as="geometry" />
        </mxCell>
        <mxCell id="XbT-4NyTX25RX7wR1Qhp-14" value="AWS&#xa;CloudTrail" style="sketch=0;outlineConnect=0;fontColor=#232F3E;gradientColor=none;strokeColor=#ffffff;fillColor=#232F3E;dashed=0;verticalLabelPosition=middle;verticalAlign=bottom;align=center;html=1;whiteSpace=wrap;fontSize=10;fontStyle=1;spacing=3;shape=mxgraph.aws4.productIcon;prIcon=mxgraph.aws4.cloudtrail;" vertex="1" parent="1">
          <mxGeometry x="770" y="360" width="80" height="110" as="geometry" />
        </mxCell>
        <mxCell id="XbT-4NyTX25RX7wR1Qhp-15" value="AWS Config" style="sketch=0;outlineConnect=0;fontColor=#232F3E;gradientColor=none;strokeColor=#ffffff;fillColor=#232F3E;dashed=0;verticalLabelPosition=middle;verticalAlign=bottom;align=center;html=1;whiteSpace=wrap;fontSize=10;fontStyle=1;spacing=3;shape=mxgraph.aws4.productIcon;prIcon=mxgraph.aws4.config;" vertex="1" parent="1">
          <mxGeometry x="500" y="485" width="80" height="100" as="geometry" />
        </mxCell>
        <mxCell id="XbT-4NyTX25RX7wR1Qhp-16" value="AWS Management Console" style="sketch=0;outlineConnect=0;fontColor=#232F3E;gradientColor=none;strokeColor=#ffffff;fillColor=#232F3E;dashed=0;verticalLabelPosition=middle;verticalAlign=bottom;align=center;html=1;whiteSpace=wrap;fontSize=10;fontStyle=1;spacing=3;shape=mxgraph.aws4.productIcon;prIcon=mxgraph.aws4.management_console;" vertex="1" parent="1">
          <mxGeometry x="730" y="30" width="80" height="120" as="geometry" />
        </mxCell>
        <mxCell id="XbT-4NyTX25RX7wR1Qhp-17" value="AWS Trusted Advisor" style="sketch=0;outlineConnect=0;fontColor=#232F3E;gradientColor=none;strokeColor=#ffffff;fillColor=#232F3E;dashed=0;verticalLabelPosition=middle;verticalAlign=bottom;align=center;html=1;whiteSpace=wrap;fontSize=10;fontStyle=1;spacing=3;shape=mxgraph.aws4.productIcon;prIcon=mxgraph.aws4.trusted_advisor;" vertex="1" parent="1">
          <mxGeometry x="770" y="170" width="80" height="110" as="geometry" />
        </mxCell>
        <mxCell id="XbT-4NyTX25RX7wR1Qhp-18" value="Alarm" style="sketch=0;outlineConnect=0;fontColor=#232F3E;gradientColor=none;strokeColor=#232F3E;fillColor=#ffffff;dashed=0;verticalLabelPosition=bottom;verticalAlign=top;align=center;html=1;fontSize=12;fontStyle=0;aspect=fixed;shape=mxgraph.aws4.resourceIcon;resIcon=mxgraph.aws4.alarm;" vertex="1" parent="1">
          <mxGeometry x="330" y="190" width="60" height="60" as="geometry" />
        </mxCell>
        <mxCell id="XbT-4NyTX25RX7wR1Qhp-19" value="Amazon SageMaker" style="sketch=0;outlineConnect=0;fontColor=#232F3E;gradientColor=none;strokeColor=#ffffff;fillColor=#232F3E;dashed=0;verticalLabelPosition=middle;verticalAlign=bottom;align=center;html=1;whiteSpace=wrap;fontSize=10;fontStyle=1;spacing=3;shape=mxgraph.aws4.productIcon;prIcon=mxgraph.aws4.sagemaker;" vertex="1" parent="1">
          <mxGeometry x="660" y="150" width="80" height="110" as="geometry" />
        </mxCell>
        <mxCell id="XbT-4NyTX25RX7wR1Qhp-20" value="Amazon&#xa;Aurora" style="sketch=0;outlineConnect=0;fontColor=#232F3E;gradientColor=none;strokeColor=#ffffff;fillColor=#232F3E;dashed=0;verticalLabelPosition=middle;verticalAlign=bottom;align=center;html=1;whiteSpace=wrap;fontSize=10;fontStyle=1;spacing=3;shape=mxgraph.aws4.productIcon;prIcon=mxgraph.aws4.aurora;" vertex="1" parent="1">
          <mxGeometry x="425" y="150" width="80" height="110" as="geometry" />
        </mxCell>
        <mxCell id="XbT-4NyTX25RX7wR1Qhp-21" value="Amazon RDS" style="sketch=0;outlineConnect=0;fontColor=#232F3E;gradientColor=none;strokeColor=#ffffff;fillColor=#232F3E;dashed=0;verticalLabelPosition=middle;verticalAlign=bottom;align=center;html=1;whiteSpace=wrap;fontSize=10;fontStyle=1;spacing=3;shape=mxgraph.aws4.productIcon;prIcon=mxgraph.aws4.rds;" vertex="1" parent="1">
          <mxGeometry x="240" y="150" width="80" height="100" as="geometry" />
        </mxCell>
        <mxCell id="XbT-4NyTX25RX7wR1Qhp-22" value="Amazon EC2" style="sketch=0;outlineConnect=0;fontColor=#232F3E;gradientColor=none;strokeColor=#ffffff;fillColor=#232F3E;dashed=0;verticalLabelPosition=middle;verticalAlign=bottom;align=center;html=1;whiteSpace=wrap;fontSize=10;fontStyle=1;spacing=3;shape=mxgraph.aws4.productIcon;prIcon=mxgraph.aws4.ec2;" vertex="1" parent="1">
          <mxGeometry x="270" y="720" width="80" height="100" as="geometry" />
        </mxCell>
        <mxCell id="XbT-4NyTX25RX7wR1Qhp-23" value="AWS Lambda" style="sketch=0;outlineConnect=0;fontColor=#232F3E;gradientColor=none;strokeColor=#ffffff;fillColor=#232F3E;dashed=0;verticalLabelPosition=middle;verticalAlign=bottom;align=center;html=1;whiteSpace=wrap;fontSize=10;fontStyle=1;spacing=3;shape=mxgraph.aws4.productIcon;prIcon=mxgraph.aws4.lambda;" vertex="1" parent="1">
          <mxGeometry x="385" y="730" width="80" height="100" as="geometry" />
        </mxCell>
        <mxCell id="XbT-4NyTX25RX7wR1Qhp-24" value="AWS Elastic Beanstalk" style="sketch=0;outlineConnect=0;fontColor=#232F3E;gradientColor=none;strokeColor=#ffffff;fillColor=#232F3E;dashed=0;verticalLabelPosition=middle;verticalAlign=bottom;align=center;html=1;whiteSpace=wrap;fontSize=10;fontStyle=1;spacing=3;shape=mxgraph.aws4.productIcon;prIcon=mxgraph.aws4.elastic_beanstalk;" vertex="1" parent="1">
          <mxGeometry x="490" y="730" width="80" height="110" as="geometry" />
        </mxCell>
        <mxCell id="XbT-4NyTX25RX7wR1Qhp-25" value="Amazon QuickSight" style="sketch=0;outlineConnect=0;fontColor=#232F3E;gradientColor=none;strokeColor=#ffffff;fillColor=#232F3E;dashed=0;verticalLabelPosition=middle;verticalAlign=bottom;align=center;html=1;whiteSpace=wrap;fontSize=10;fontStyle=1;spacing=3;shape=mxgraph.aws4.productIcon;prIcon=mxgraph.aws4.quicksight;" vertex="1" parent="1">
          <mxGeometry x="770" y="710" width="80" height="110" as="geometry" />
        </mxCell>
        <mxCell id="XbT-4NyTX25RX7wR1Qhp-26" value="Amazon S3" style="sketch=0;outlineConnect=0;fontColor=#232F3E;gradientColor=none;strokeColor=#ffffff;fillColor=#232F3E;dashed=0;verticalLabelPosition=middle;verticalAlign=bottom;align=center;html=1;whiteSpace=wrap;fontSize=10;fontStyle=1;spacing=3;shape=mxgraph.aws4.productIcon;prIcon=mxgraph.aws4.s3;" vertex="1" parent="1">
          <mxGeometry x="580" y="730" width="80" height="100" as="geometry" />
        </mxCell>
        <mxCell id="XbT-4NyTX25RX7wR1Qhp-27" value="Amazon Elastic Block Store" style="sketch=0;outlineConnect=0;fontColor=#232F3E;gradientColor=none;strokeColor=#ffffff;fillColor=#232F3E;dashed=0;verticalLabelPosition=middle;verticalAlign=bottom;align=center;html=1;whiteSpace=wrap;fontSize=10;fontStyle=1;spacing=3;shape=mxgraph.aws4.productIcon;prIcon=mxgraph.aws4.elastic_block_store;" vertex="1" parent="1">
          <mxGeometry x="680" y="730" width="80" height="110" as="geometry" />
        </mxCell>
      </root>
    </mxGraphModel>
  </diagram>
</mxfile>
